HIERARCHY
ROOT Hips
{
    OFFSET   0.000000   0.000000   0.000000
    CHANNELS 6 Xposition Yposition Zposition Zrotation Xrotation Yrotation
    JOINT Chest
    {
        OFFSET   0.000000   8.007230   0.000000
        CHANNELS 3 Zrotation Xrotation Yrotation
        JOINT Chest2
        {
            OFFSET   0.000000  22.077100   0.000000
            CHANNELS 3 Zrotation Xrotation Yrotation
            JOINT Neck
            {
                OFFSET   0.000000  23.254800  -0.000021
                CHANNELS 3 Zrotation Xrotation Yrotation
                JOINT Head
                {
                    OFFSET   0.000000  14.370000   1.956610
                    CHANNELS 3 Zrotation Xrotation Yrotation
                    End Site
                    {
                        OFFSET   0.000000  19.566000   0.000000
                    }
                }
            }
            JOINT LeftCollar
            {
                OFFSET   3.911900  19.017000  -0.467063
                CHANNELS 3 Zrotation Xrotation Yrotation
                JOINT LeftShoulder
                {
                    OFFSET  10.383700   0.000000   0.000000
                    CHANNELS 3 Zrotation Xrotation Yrotation
                    JOINT LeftElbow
                    {
                        OFFSET  26.662100   0.001529   0.000325
                        CHANNELS 3 Zrotation Xrotation Yrotation
                        JOINT LeftWrist
                        {
                            OFFSET  28.869000  -0.000011  -0.000096
                            CHANNELS 3 Zrotation Xrotation Yrotation
                            JOINT LeftFinger0
                            {
                                OFFSET   2.044650  -2.323460   3.252850
                                CHANNELS 3 Zrotation Xrotation Yrotation
                                JOINT LeftFinger01
                                {
                                    OFFSET   3.088130   0.000000   0.000000
                                    CHANNELS 3 Zrotation Xrotation Yrotation
                                    JOINT LeftFinger02
                                    {
                                        OFFSET   2.639460   0.000000   0.000000
                                        CHANNELS 3 Zrotation Xrotation Yrotation
                                        End Site
                                        {
                                            OFFSET   2.582190   0.000000   0.000000
                                        }
                                    }
                                }
                            }
                            JOINT LeftFinger1
                            {
                                OFFSET   8.364480   0.000000   3.252850
                                CHANNELS 3 Zrotation Xrotation Yrotation
                                JOINT LeftFinger11
                                {
                                    OFFSET   4.646930   0.000000   0.000000
                                    CHANNELS 3 Zrotation Xrotation Yrotation
                                    JOINT LeftFinger12
                                    {
                                        OFFSET   2.323460   0.000000   0.000000
                                        CHANNELS 3 Zrotation Xrotation Yrotation
                                        End Site
                                        {
                                            OFFSET   2.273050   0.000000   0.000000
                                        }
                                    }
                                }
                            }
                            JOINT LeftFinger2
                            {
                                OFFSET   8.364480   0.000016   1.078090
                                CHANNELS 3 Zrotation Xrotation Yrotation
                                JOINT LeftFinger21
                                {
                                    OFFSET   5.111620   0.000000   0.000000
                                    CHANNELS 3 Zrotation Xrotation Yrotation
                                    JOINT LeftFinger22
                                    {
                                        OFFSET   2.788160   0.000017   0.000000
                                        CHANNELS 3 Zrotation Xrotation Yrotation
                                        End Site
                                        {
                                            OFFSET   2.727660   0.000000   0.000000
                                        }
                                    }
                                }
                            }
                            JOINT LeftFinger3
                            {
                                OFFSET   7.899780   0.000015  -1.078090
                                CHANNELS 3 Zrotation Xrotation Yrotation
                                JOINT LeftFinger31
                                {
                                    OFFSET   4.646920   0.000000   0.000000
                                    CHANNELS 3 Zrotation Xrotation Yrotation
                                    JOINT LeftFinger32
                                    {
                                        OFFSET   2.323470   0.000000   0.000000
                                        CHANNELS 3 Zrotation Xrotation Yrotation
                                        End Site
                                        {
                                            OFFSET   2.273050   0.000000   0.000000
                                        }
                                    }
                                }
                            }
                            JOINT LeftFinger4
                            {
                                OFFSET   7.435090   0.000000  -3.252850
                                CHANNELS 3 Zrotation Xrotation Yrotation
                                JOINT LeftFinger41
                                {
                                    OFFSET   3.717550   0.000000   0.000000
                                    CHANNELS 3 Zrotation Xrotation Yrotation
                                    JOINT LeftFinger42
                                    {
                                        OFFSET   1.858760   0.000000   0.000000
                                        CHANNELS 3 Zrotation Xrotation Yrotation
                                        End Site
                                        {
                                            OFFSET   1.818440   0.000000   0.000000
                                        }
                                    }
                                }
                            }
                        }
                    }
                }
            }
            JOINT RightCollar
            {
                OFFSET  -3.911900  19.017000  -0.467062
                CHANNELS 3 Zrotation Xrotation Yrotation
                JOINT RightShoulder
                {
                    OFFSET -10.383700   0.000015   0.000000
                    CHANNELS 3 Zrotation Xrotation Yrotation
                    JOINT RightElbow
                    {
                        OFFSET -26.662100   0.001341   0.000385
                        CHANNELS 3 Zrotation Xrotation Yrotation
                        JOINT RightWrist
                        {
                            OFFSET -28.869000   0.000025  -0.000080
                            CHANNELS 3 Zrotation Xrotation Yrotation
                            JOINT RightFinger0
                            {
                                OFFSET  -2.044650  -2.323490   3.252850
                                CHANNELS 3 Zrotation Xrotation Yrotation
                                JOINT RightFinger01
                                {
                                    OFFSET  -3.088130   0.000000   0.000000
                                    CHANNELS 3 Zrotation Xrotation Yrotation
                                    JOINT RightFinger02
                                    {
                                        OFFSET  -2.639460   0.000000   0.000000
                                        CHANNELS 3 Zrotation Xrotation Yrotation
                                        End Site
                                        {
                                            OFFSET  -2.582190   0.000000   0.000000
                                        }
                                    }
                                }
                            }
                            JOINT RightFinger1
                            {
                                OFFSET  -8.364480   0.000000   3.252850
                                CHANNELS 3 Zrotation Xrotation Yrotation
                                JOINT RightFinger11
                                {
                                    OFFSET  -4.646930   0.000000   0.000000
                                    CHANNELS 3 Zrotation Xrotation Yrotation
                                    JOINT RightFinger12
                                    {
                                        OFFSET  -2.323470   0.000000   0.000000
                                        CHANNELS 3 Zrotation Xrotation Yrotation
                                        End Site
                                        {
                                            OFFSET  -2.273050   0.000000   0.000000
                                        }
                                    }
                                }
                            }
                            JOINT RightFinger2
                            {
                                OFFSET  -8.364480   0.000000   1.078090
                                CHANNELS 3 Zrotation Xrotation Yrotation
                                JOINT RightFinger21
                                {
                                    OFFSET  -5.111610   0.000000   0.000000
                                    CHANNELS 3 Zrotation Xrotation Yrotation
                                    JOINT RightFinger22
                                    {
                                        OFFSET  -2.788160   0.000000   0.000000
                                        CHANNELS 3 Zrotation Xrotation Yrotation
                                        End Site
                                        {
                                            OFFSET  -2.727660   0.000000   0.000000
                                        }
                                    }
                                }
                            }
                            JOINT RightFinger3
                            {
                                OFFSET  -7.899780   0.000000  -1.078090
                                CHANNELS 3 Zrotation Xrotation Yrotation
                                JOINT RightFinger31
                                {
                                    OFFSET  -4.646920   0.000000   0.000000
                                    CHANNELS 3 Zrotation Xrotation Yrotation
                                    JOINT RightFinger32
                                    {
                                        OFFSET  -2.323470   0.000000   0.000000
                                        CHANNELS 3 Zrotation Xrotation Yrotation
                                        End Site
                                        {
                                            OFFSET  -2.273050   0.000000   0.000000
                                        }
                                    }
                                }
                            }
                            JOINT RightFinger4
                            {
                                OFFSET  -7.435090   0.000000  -3.252850
                                CHANNELS 3 Zrotation Xrotation Yrotation
                                JOINT RightFinger41
                                {
                                    OFFSET  -3.717550   0.000000   0.000000
                                    CHANNELS 3 Zrotation Xrotation Yrotation
                                    JOINT RightFinger42
                                    {
                                        OFFSET  -1.858770   0.000000   0.000000
                                        CHANNELS 3 Zrotation Xrotation Yrotation
                                        End Site
                                        {
                                            OFFSET  -1.818440   0.000000   0.000000
                                        }
                                    }
                                }
                            }
                        }
                    }
                }
            }
        }
    }
    JOINT LeftHip
    {
        OFFSET   9.783010   0.000000   0.000000
        CHANNELS 3 Zrotation Xrotation Yrotation
        JOINT LeftKnee
        {
            OFFSET   0.000070 -41.789100   0.000028
            CHANNELS 3 Zrotation Xrotation Yrotation
            JOINT LeftAnkle
            {
                OFFSET   0.000087 -41.133200  -0.000100
                CHANNELS 3 Zrotation Xrotation Yrotation
                JOINT LeftToe
                {
                    OFFSET   0.000000  -6.358960  14.674500
                    CHANNELS 3 Zrotation Xrotation Yrotation
                    End Site
                    {
                        OFFSET   0.000000   0.000000   3.913200
                    }
                }
            }
        }
    }
    JOINT RightHip
    {
        OFFSET  -9.783020   0.000000   0.000000
        CHANNELS 3 Zrotation Xrotation Yrotation
        JOINT RightKnee
        {
            OFFSET   0.000044 -41.789100  -0.000870
            CHANNELS 3 Zrotation Xrotation Yrotation
            JOINT RightAnkle
            {
                OFFSET  -0.000090 -41.133200  -0.000245
                CHANNELS 3 Zrotation Xrotation Yrotation
                JOINT RightToe
                {
                    OFFSET   0.000000  -6.358960  14.674500
                    CHANNELS 3 Zrotation Xrotation Yrotation
                    End Site
                    {
                        OFFSET   0.000000   0.000000   3.913200
                    }
                }
            }
        }
    }
}
MOTION
Frames: 4
Frame Time:   0.016667
  2.932420  89.468400   1.359970  -1.358570  -1.962820   0.864171   0.556818   2.417850   0.129399   1.109660   4.836840   0.235562  -1.655050   0.610508   0.027009  -2.720430   1.234000   0.760832  -3.250560   2.164640   5.093020 -79.744800   5.302000   0.808737  -0.371679   5.891110 -16.539300   8.788900  -5.670430  -4.071980  38.709000  31.210600 -50.992900 -32.734700  -0.002286   0.006274 -11.367400   0.013953   0.002833 -31.062100  -1.217300   2.019990 -25.432000  -0.007880   0.000644 -17.802400  -0.005631   0.001575 -24.608200  -4.199710   9.094250 -24.941900   0.001890   0.005419 -16.611300  -0.001381  -0.010784 -28.222700  -4.777600   8.821230 -37.144400   0.002813   0.001716 -24.738100   0.002002   0.000156 -34.143000  -5.665420   8.281640 -51.830200   0.002691  -0.002354 -34.518800   0.001526   0.000948   8.647570   3.345570   2.970050  70.380700  -3.653050  -1.470080   4.258390  -5.414310  16.475200 -19.858300  -2.465080   3.155510 -41.992400  36.476400  69.808000  29.408700  -0.005309  -0.002416   9.704390  -0.002241  -0.006613  35.767500  -1.090900  -1.513320  29.276500   0.000179  -0.000127  20.493600   0.012772  -0.000120  28.702500  -3.743300  -6.799860  43.493300   0.009327  -0.010765  28.966500   0.006724  -0.009084  28.852000  -4.723530  -8.504500  43.938900   0.008444  -0.010232  29.263300   0.006719  -0.009940  38.456900  -6.080540  -7.598410  58.287900   0.002553  -0.002245  38.819700   0.003630  -0.001943   1.556990   3.495820  -2.272600  -0.772593   0.002248   8.751020  -0.846212  -2.262690   0.895455  -0.000000   0.000000  -0.000000  -0.032701  -0.604363  -2.872930  -1.963010   8.989770 -12.254300   2.127820  -5.517660  -5.506410   0.000000   0.000000  -0.000000
  2.928480  89.468200   1.369210  -1.362960  -2.001840   0.836620   0.557861   2.451850   0.141550   1.111180   4.904950   0.259534  -1.656410   0.593956   0.026956  -2.722340   1.200930   0.720066  -3.244510   2.118420   5.040080 -79.722200   5.289430   0.774158  -0.339001   5.910470 -16.515000   8.806570  -5.658500  -4.051140  38.750900  31.316800 -51.068100 -32.752200  -0.002302   0.006285 -11.376100   0.014091   0.002840 -31.071800  -1.223650   2.030420 -25.440100  -0.007888   0.000692 -17.808100  -0.005685   0.001575 -24.585600  -4.199510   9.099930 -24.919700   0.002029   0.005468 -16.596500  -0.001254  -0.010880 -28.222600  -4.777780   8.821230 -37.158900   0.003008   0.001605 -24.747800   0.002146   0.000194 -34.143400  -5.665550   8.281640 -51.830900   0.002903  -0.002355 -34.519300   0.001641   0.001030   8.692570   3.197890   2.938670  70.401400  -3.753220  -1.522130   4.376900  -5.597850  16.751100 -19.972000  -2.538350   3.158580 -41.575600  36.314300  69.610700  29.833900  -0.005311  -0.002419   9.917000  -0.002242  -0.006624  35.789800  -1.189380  -1.649780  29.294000   0.000164  -0.000106  20.505800   0.012772  -0.000106  28.632500  -3.766160  -6.862080  43.192200   0.009332  -0.010796  28.766000   0.006756  -0.009110  28.735600  -4.690230  -8.482260  43.782600   0.008467  -0.010236  29.159200   0.006712  -0.009939  38.400900  -6.049950  -7.578370  58.194700   0.002606  -0.002271  38.757600   0.003612  -0.001979   1.560050   3.545000  -2.286460  -0.776217   0.004319   8.789910  -0.845966  -2.273030   0.897221  -0.000000   0.000000   0.000000  -0.030464  -0.559077  -2.900270  -1.968120   8.999450 -12.225800   2.137150  -5.532010  -5.477850   0.000000   0.000000  -0.000000
  2.923080  89.467400   1.386190  -1.369540  -2.085660   0.782311   0.563014   2.516640   0.165798   1.120350   5.034760   0.307252  -1.661830   0.577403   0.026851  -2.731010   1.167880   0.638628  -3.234880   2.052850   4.932400 -79.696800   5.276890   0.709028  -0.287194   5.930360 -16.473400   8.826670  -5.641880  -4.020530  38.790600  31.425500 -51.143500 -32.776500  -0.002324   0.006304 -11.388300   0.014386   0.002847 -31.088200  -1.231150   2.040850 -25.453700  -0.007901   0.000791 -17.817600  -0.005795   0.001577 -24.554200  -4.199220   9.107850 -24.888700   0.002223   0.005572 -16.575900  -0.001042  -0.011084 -28.222600  -4.778030   8.821230 -37.183200   0.003282   0.001419 -24.764000   0.002349   0.000256 -34.143800  -5.665670   8.281650 -51.831600   0.003200  -0.002358 -34.519700   0.001802   0.001144   8.744740   2.962760   2.851170  70.433100  -4.044160  -1.609270   4.546960  -5.785110  17.465800 -20.155400  -2.837260   3.179660 -40.924600  36.065600  69.483000  30.469700  -0.005317  -0.002432  10.234900  -0.002243  -0.006643  35.811700  -1.287840  -1.786260  29.311400   0.000127  -0.000068  20.518000   0.012773  -0.000067  28.554100  -3.789000  -6.924300  42.566700   0.009338  -0.010871  28.349400   0.006788  -0.009172  28.579400  -4.572680  -8.328010  43.388600   0.008505  -0.010244  28.896800   0.006691  -0.009938  38.288700  -5.910550  -7.439220  57.994500   0.002680  -0.002334  38.624300   0.003569  -0.002040   1.565990   3.646680  -2.311940  -0.782066   0.006390   8.858070  -0.845164  -2.292300   0.907189  -0.000000   0.000000  -0.000000  -0.025681  -0.470040  -2.949570  -1.979150   9.025460 -12.180000   2.152690  -5.562150  -5.417220   0.000000   0.000000   0.000000
  2.921170  89.466200   1.403820  -1.373530  -2.190970   0.724308   0.574659   2.586010   0.197323   1.142160   5.173850   0.369205  -1.674610   0.578507   0.026723  -2.752030   1.170080   0.536543  -3.224210   2.021570   4.798070 -79.690600   5.296610   0.637702  -0.256490   5.907490 -16.435500   8.829840  -5.638480  -4.004430  38.788000  31.428200 -51.141700 -32.781800  -0.002337   0.006321 -11.391000   0.014800   0.002844 -31.102000  -1.232310   2.040840 -25.465000  -0.007918   0.000927 -17.825500  -0.005943   0.001580 -24.541200  -4.199100   9.111060 -24.875900   0.002306   0.005713 -16.567400  -0.000830  -0.011362 -28.222400  -4.778110   8.822580 -37.203000   0.003399   0.001233 -24.777200   0.002436   0.000319 -34.141000  -5.665620   8.283180 -51.827400   0.003327  -0.002363 -34.516900   0.001870   0.001193   8.749510   2.791060   2.698390  70.454800  -4.555940  -1.681690   4.648600  -5.771370  18.532400 -20.273900  -3.476670   3.247690 -40.375600  35.877600  69.793800  30.855800  -0.005327  -0.002461  10.427900  -0.002254  -0.006664  35.732400  -1.109870  -1.542290  29.240000   0.000064  -0.000039  20.468000   0.012790   0.000002  28.548600  -3.788600  -6.923920  41.753500   0.009338  -0.010981  27.807900   0.006777  -0.009269  28.535300  -4.333430  -7.914260  42.774400   0.008543  -0.010252  28.487700   0.006655  -0.009990  38.156600  -5.593000  -7.076570  57.735400   0.002712  -0.002429  38.451800   0.003503  -0.002100   1.572170   3.769190  -2.341060  -0.787590   0.006030   8.921590  -0.840169  -2.311360   0.928020  -0.000000   0.000000  -0.000000  -0.019556  -0.367096  -3.001100  -1.991350   9.063230 -12.152500   2.164490  -5.600460  -5.335640  -0.000000   0.000000   0.000000
